<svg width="43" height="32" fill="none" xmlns="http://www.w3.org/2000/svg"><path d="M11.843 11.234a.977.977 0 01-.106.51c-.07.164-.135.31-.193.44l-.563.597-.333 1.002a6.6 6.6 0 01-.422.282 2.494 2.494 0 00-.738.615c-.094.129-.2.24-.317.334a1.819 1.819 0 01-.422.246 2.366 2.366 0 00-.422.21 9.769 9.769 0 00-.668.44c-.199.152-.41.299-.633.44a.411.411 0 00-.14.087.377.377 0 01-.123.07c-.035.024-.188.071-.457.141-.27.07-.569.153-.897.247a94.95 94.95 0 01-.896.228 4.43 4.43 0 01-.475.105 5.74 5.74 0 01-.65.036c-.223 0-.446.006-.668.017l-.264.159a3.68 3.68 0 00-.422-.264 2.021 2.021 0 01-.387-.264 4.96 4.96 0 01-.351-.351c-.117-.141-.223-.27-.317-.387a21.187 21.187 0 00-.175-.475 4.26 4.26 0 01-.14-.474l-.089-.668a114.4 114.4 0 00-.07-.65 14.12 14.12 0 00-.053-.651c.2-.55.375-1.102.527-1.652a13.9 13.9 0 01.598-1.653c.059-.129.111-.258.158-.387.059-.14.118-.275.176-.404.07-.14.147-.27.229-.387.082-.128.152-.257.21-.386a2.97 2.97 0 00.141-.422 2.27 2.27 0 01.14-.422c.036-.07.095-.17.177-.299.082-.14.17-.281.263-.422.094-.152.182-.299.264-.44.094-.14.17-.251.228-.333.094-.117.188-.229.282-.334.093-.106.17-.223.228-.352a4.18 4.18 0 00.334-.756A5.23 5.23 0 014.76 3.8a4.24 4.24 0 01.492-.72c.2-.235.38-.475.545-.722.176-.246.346-.515.51-.808L7.08.987l.352.352.843-.14.528.79a25.44 25.44 0 01-.088.598c-.024.223-.047.451-.07.685l-.036.668c0 .211.012.399.036.563-.059.21-.147.434-.264.668a2.587 2.587 0 01-.37.58l-.07.95-.703.632-.088.897-.597.703-.106.51a3.17 3.17 0 01-.14.474 5.58 5.58 0 01-.211.44c-.082.14-.164.287-.246.439-.235.2-.475.422-.721.668a9.508 9.508 0 00-.668.738 3.86 3.86 0 00-.299.422c-.082.14-.17.275-.264.404-.304.387-.632.75-.984 1.09-.351.34-.697.692-1.037 1.055l.387.685c.246.083.498.159.756.229.257.07.515.135.773.193.117-.023.252-.047.404-.07.153-.035.31-.07.475-.105.164-.047.322-.094.475-.141.164-.047.298-.094.404-.14.234-.095.504-.23.808-.405.305-.188.563-.352.774-.492.375-.235.756-.475 1.142-.72.387-.247.756-.505 1.108-.774.234-.176.48-.399.738-.668l.72-.756c.235-.246.44-.445.616-.598.188-.152.317-.21.387-.176zM7.062 2.92c-.247.41-.51.809-.791 1.195-.27.375-.522.768-.756 1.178-.082.14-.153.287-.211.44-.059.14-.135.28-.229.421-.082.13-.17.258-.263.387-.094.129-.176.27-.247.422-.14.27-.27.557-.386.861-.106.293-.223.58-.352.862a5 5 0 01-.492.79c-.188.247-.357.51-.51.792l-.281.562a.781.781 0 01-.07.14.377.377 0 00-.07.124c-.048.129-.071.27-.071.422a1.705 1.705 0 01-.21.826 5.377 5.377 0 00-.194.387 2.355 2.355 0 00-.14.404 4.921 4.921 0 01-.124.387 1.98 1.98 0 01.299-.247c.117-.082.228-.17.334-.263.105-.106.205-.217.299-.334.093-.117.199-.223.316-.317a2.37 2.37 0 01.334-.246c.129-.082.252-.164.37-.246a6.3 6.3 0 00.491-.79c.07-.13.13-.276.176-.44.059-.164.13-.31.211-.44.07-.129.158-.252.264-.369a2.17 2.17 0 00.299-.369c.093-.129.17-.264.228-.404.07-.14.147-.276.229-.405a6.59 6.59 0 01.545-.738l.087-1.107.633-.739.088-.668.44-.615.052-.984-.298-.88zm14.466 8.56a.552.552 0 01-.052.457 1.239 1.239 0 01-.334.317 3.113 3.113 0 01-.44.264c-.152.07-.281.152-.387.246a17.26 17.26 0 01-1.441.263c-.422.047-.89.112-1.406.194a1.384 1.384 0 01-.44 0 1.154 1.154 0 00-.404-.036h-.229a.638.638 0 00-.21 0c-.27.024-.446.118-.528.282a2.647 2.647 0 00-.21.545 3.496 3.496 0 01-.194.58c-.07.176-.229.299-.475.369a.153.153 0 00.018.158.854.854 0 01.105.123c-.199.059-.334.164-.404.317a6.993 6.993 0 00-.158.457 1.027 1.027 0 01-.211.386c-.082.106-.246.141-.492.106a4.249 4.249 0 01-1.284.931 4.827 4.827 0 01-1.529.475 1.85 1.85 0 01-.281-.176 2.175 2.175 0 00-.264-.193 1.054 1.054 0 00-.28-.14.798.798 0 00-.335 0 2.162 2.162 0 00-.14-.686 3.074 3.074 0 00-.352-.598c-.024-.21.006-.404.088-.58.07-.188.146-.37.228-.545a4.95 4.95 0 00.211-.527 1.188 1.188 0 00-.035-.633.505.505 0 00.229-.246.868.868 0 00.087-.281c.024-.106.053-.2.088-.282.035-.093.118-.17.246-.228-.093-.281-.082-.486.036-.615.128-.141.28-.264.457-.37.175-.105.34-.222.492-.351.152-.129.21-.322.176-.58a.94.94 0 01.246-.176 4.52 4.52 0 01.263-.123c.094-.047.182-.094.264-.14a.875.875 0 00.229-.194c-.082-.059-.124-.117-.124-.176a1.1 1.1 0 01.053-.176l.07-.21a.224.224 0 000-.211c.317.046.592.005.827-.123a11.7 11.7 0 00.685-.422c.223-.141.446-.24.668-.3.223-.058.48.013.774.212l.105.369c.059.152.111.31.158.475.059.164.112.322.159.474a2.9 2.9 0 01.087.334v1.406c.34.2.68.323 1.02.37.34.035.68-.047 1.02-.247.128.118.252.153.369.106a3.13 3.13 0 00.334-.194.678.678 0 01.351-.105c.117-.012.235.082.352.281a1.06 1.06 0 01.51-.281c.175-.047.357-.07.545-.07.187-.012.369-.03.544-.053.188-.024.37-.1.545-.229zm-6.75.3c0-.176.03-.364.088-.563.059-.2.106-.393.14-.58.036-.2.03-.387-.017-.563-.035-.176-.146-.334-.334-.474a.858.858 0 00-.316.298c-.082.118-.164.24-.246.37a1.207 1.207 0 01-.3.298c-.104.082-.245.106-.42.07-.06.141-.06.259 0 .352.058.082.128.164.21.246.082.07.158.147.229.229.082.082.11.187.087.316.047.036.112.07.194.106.082.023.164.04.246.053a.953.953 0 00.263-.036.284.284 0 00.176-.123zm-.123 1.405c-.234 0-.44-.052-.615-.158a11.766 11.766 0 01-.51-.386 4.33 4.33 0 00-.527-.387 1.271 1.271 0 00-.65-.229 2.961 2.961 0 01-.37.405c-.14.117-.263.246-.369.386a1.41 1.41 0 00-.228.457c-.035.165-.006.352.088.563-.27.129-.451.316-.545.562a3.116 3.116 0 00-.194.774l-.07.844c-.023.28-.1.533-.228.756l.386-.264a.23.23 0 01.106.105c.035.047.04.1.017.159a.936.936 0 01.317-.211c.117-.059.234-.1.351-.123a5.47 5.47 0 01.37-.088c.128-.024.251-.059.368-.106.293.164.504.2.633.106a1 1 0 00.317-.422c.082-.188.17-.381.263-.58a.632.632 0 01.458-.387l-.124-.123c.2-.246.375-.498.528-.756.164-.27.24-.568.228-.897zm17.262-1.212a1.897 1.897 0 00-.299.545c-.07.199-.158.386-.263.562a1.346 1.346 0 01-.37.44c-.14.117-.34.17-.597.158a.757.757 0 00-.422.386 25 25 0 00-.246.545 1.364 1.364 0 01-.317.44c-.129.105-.322.117-.58.035-.328.14-.627.328-.896.563-.258.222-.504.457-.738.703a4.337 4.337 0 00-.282.316 1.458 1.458 0 01-.299.264.263.263 0 01-.246.017 4.302 4.302 0 01-.228-.105.378.378 0 00-.211-.07c-.059 0-.111.052-.158.158.082.164.1.275.052.334a.424.424 0 01-.228.158 2.803 2.803 0 01-.334.088.622.622 0 00-.281.123 1.06 1.06 0 00-.3.474c-.058.188-.11.375-.157.563a2.072 2.072 0 01-.211.527.837.837 0 01-.422.405c.117.082.164.164.14.246a.693.693 0 01-.088.246 1.536 1.536 0 00-.105.263c-.012.082.035.165.14.247a5.105 5.105 0 00-.474.72l-.387.774a8.39 8.39 0 01-.421.773 2.59 2.59 0 01-.545.686l.052.422c-.176-.047-.287-.041-.334.017a.48.48 0 00-.052.246v.317c.011.117-.024.205-.106.263a.35.35 0 01-.123.106.7.7 0 00-.105.088 2.14 2.14 0 00-.774 1.072 1.39 1.39 0 00-.053.21 2.044 2.044 0 01-.052.23 2.026 2.026 0 01-.282.51c-.129.175-.27.357-.421.544-.153.188-.3.38-.44.58a3.3 3.3 0 00-.334.633c-.187-.024-.334-.006-.44.053a.87.87 0 00-.28.263c-.07.117-.13.24-.176.37-.047.128-.106.24-.176.333a.709.709 0 01-.299.229c-.129.059-.293.059-.492 0l-.791.72a.461.461 0 00-.405-.052 1.83 1.83 0 00-.404.193 2.5 2.5 0 01-.404.194.539.539 0 01-.44-.053c-.082.094-.152.14-.21.14-.06.012-.13-.035-.211-.14l-.264.281a2.954 2.954 0 00-.51-.334 3.121 3.121 0 01-.58-.334 1.447 1.447 0 01-.422-.422c-.105-.152-.123-.351-.053-.597a1.29 1.29 0 00-.105-.229 1.141 1.141 0 01-.14-.264.969.969 0 01-.07-.263.283.283 0 01.07-.229.95.95 0 01-.106-.615c.023-.2.064-.398.123-.598.059-.199.105-.398.14-.597a.91.91 0 00-.105-.598.978.978 0 00.317-.404c.058-.164.117-.334.175-.51.047-.176.1-.346.159-.51a.854.854 0 01.298-.404l-.017-.281a16.329 16.329 0 011.758-1.617c.609-.48 1.3-.838 2.074-1.073a1.46 1.46 0 01.597-.597c.246-.118.498-.229.756-.334.246-.094.475-.217.686-.37.21-.14.369-.369.475-.685.058.129.117.182.175.158a.413.413 0 00.176-.088c.07-.035.135-.064.193-.088.059-.011.118.041.176.159a1.79 1.79 0 01.563-.844c.27-.211.562-.399.879-.563l.984-.457c.328-.14.615-.316.861-.527.258-.211.451-.469.58-.773.13-.317.159-.721.088-1.213a.508.508 0 00.211-.264 1.87 1.87 0 00.07-.352c.024-.117.053-.222.088-.316.035-.094.112-.158.229-.193-.082-.13-.182-.188-.299-.176-.117.011-.24.047-.37.105a8.711 8.711 0 00-.333.176c-.105.059-.193.07-.264.035a.51.51 0 01-.228.352c-.106.07-.223.135-.352.193-.129.047-.264.1-.404.158a.711.711 0 00-.334.282c-.106-.047-.205-.024-.299.07a7.06 7.06 0 00-.264.281.81.81 0 01-.28.211c-.106.047-.23 0-.37-.14a.581.581 0 01-.351.369 1.41 1.41 0 01-.51.088 4.84 4.84 0 01-.58-.036 1.458 1.458 0 00-.51.018l-.299-.299a.32.32 0 01-.105.14.189.189 0 01-.176.018 7.86 7.86 0 01-.264-.633 2.575 2.575 0 01-.176-.685 1.418 1.418 0 01.053-.668 1.18 1.18 0 01.422-.58 3.823 3.823 0 011.283-1.406.236.236 0 00.194.052 1.6 1.6 0 00.21-.088c.082-.046.159-.093.229-.14a.457.457 0 01.193-.106c.036-.129.1-.252.194-.369.105-.117.216-.222.334-.316.129-.094.258-.176.386-.246a6.74 6.74 0 01.387-.211c.223-.106.428-.234.615-.387.2-.164.399-.316.598-.457.2-.152.404-.281.615-.387a1.59 1.59 0 01.72-.158l.317.281a2.119 2.119 0 00-.527.44c-.14.164-.287.334-.44.51a4.545 4.545 0 01-.492.457 1.43 1.43 0 01-.65.28 3.253 3.253 0 01-.861 1.056c-.352.28-.715.545-1.09.79a.57.57 0 01-.158.422 1.8 1.8 0 01-.37.282 6.93 6.93 0 01-.421.228.952.952 0 00-.352.246.54.54 0 00-.123.37c0 .14.076.328.229.562.14-.07.31-.117.51-.14a8.58 8.58 0 00.58-.089c.187-.046.35-.11.492-.193a.73.73 0 00.316-.422c.164-.14.34-.228.527-.263.188-.036.381-.042.58-.018.387-.422.774-.809 1.16-1.16a20.39 20.39 0 001.126-1.108c.351-.375.673-.773.966-1.195.305-.434.569-.932.791-1.494a.706.706 0 01.633.088c.188.129.322.293.404.492-.023.14-.064.275-.123.404l-.14.352a2.581 2.581 0 00-.088.352c-.012.128.012.275.07.439-.094-.024-.17.006-.228.088a.99.99 0 01-.159.21.732.732 0 01-.017.423 2.464 2.464 0 01-.176.351c-.07.106-.135.223-.193.352a.841.841 0 00-.035.422 4.018 4.018 0 00-.37.966c-.07.329-.117.662-.14 1.002l.316.282c.152-.223.34-.381.563-.475a5.43 5.43 0 01.703-.229c.234-.07.463-.146.685-.228a1.39 1.39 0 00.58-.475c.07-.34.217-.58.44-.72a4.05 4.05 0 01.703-.387 6.68 6.68 0 00.703-.352c.234-.14.399-.363.492-.668h.44c-.024.059-.012.112.035.159l.123.123zm-9.72 7.787c-.118.07-.247.134-.387.193a6.354 6.354 0 00-.422.194c-.14.07-.27.152-.387.246a.872.872 0 00-.264.351.379.379 0 00-.369-.017c-.105.07-.21.146-.316.228a1.54 1.54 0 01-.334.229c-.106.058-.223.052-.352-.018a6.29 6.29 0 00-.633.457c-.21.164-.422.322-.632.475a5.77 5.77 0 01-.65.44c-.235.14-.481.245-.74.316a1.368 1.368 0 01-.509.492c-.21.129-.422.252-.633.369a2.747 2.747 0 00-.597.422c-.176.164-.287.392-.334.685-.364.235-.61.534-.739.897-.14.375-.216.767-.228 1.177a9.09 9.09 0 00.053 1.266c.046.434.07.826.07 1.178a1.4 1.4 0 00.457.369c.152.07.31.105.475.105.164 0 .334-.023.51-.07.163-.035.345-.07.544-.105.047-.176.135-.293.264-.352.117-.047.246-.082.387-.105.129-.024.252-.059.369-.106.105-.035.164-.129.176-.281l.158.14a.882.882 0 01.158-.474c.094-.117.205-.229.334-.334.129-.105.27-.205.422-.299a2 2 0 00.369-.316.81.81 0 01.123-.563c.105-.152.223-.293.352-.422.128-.129.246-.27.351-.422.094-.152.13-.345.106-.58a.43.43 0 00.246-.228c.047-.106.094-.205.14-.299a.53.53 0 01.176-.21c.082-.048.205-.036.37.034-.165-.129-.235-.228-.212-.299a.541.541 0 01.176-.193c.082-.047.158-.105.229-.176.07-.07.07-.175 0-.316.28-.117.462-.287.545-.51.082-.223.14-.463.175-.72.047-.247.112-.493.194-.739.082-.234.263-.422.545-.562a.904.904 0 01.105-.563c.106-.152.205-.299.299-.44.105-.14.176-.286.21-.439.048-.152.007-.334-.122-.545l-.229.44zm20.654-8.28a.552.552 0 01-.053.457 1.24 1.24 0 01-.334.317 3.113 3.113 0 01-.44.264c-.152.07-.28.152-.386.246-.528.117-1.008.205-1.442.263-.422.047-.89.112-1.406.194a1.383 1.383 0 01-.44 0 1.152 1.152 0 00-.404-.036h-.228a.639.639 0 00-.211 0c-.27.024-.445.118-.527.282a2.641 2.641 0 00-.211.545 3.406 3.406 0 01-.194.58c-.07.176-.228.299-.474.369a.153.153 0 00.017.158.852.852 0 01.106.123c-.2.059-.334.164-.405.317a7.053 7.053 0 00-.158.457 1.027 1.027 0 01-.21.386c-.083.106-.247.141-.493.106a4.25 4.25 0 01-1.283.931 4.828 4.828 0 01-1.53.475 1.85 1.85 0 01-.28-.176 2.19 2.19 0 00-.264-.193 1.054 1.054 0 00-.282-.14.798.798 0 00-.334 0 2.163 2.163 0 00-.14-.686 3.072 3.072 0 00-.352-.598c-.023-.21.006-.404.088-.58.07-.188.146-.37.229-.545a4.96 4.96 0 00.21-.527 1.187 1.187 0 00-.035-.633.505.505 0 00.229-.246.872.872 0 00.088-.281c.023-.106.053-.2.088-.282.035-.093.117-.17.246-.228-.094-.281-.082-.486.035-.615a2.04 2.04 0 01.457-.37c.176-.105.34-.222.492-.351.153-.129.211-.322.176-.58a.938.938 0 01.246-.176 4.86 4.86 0 01.264-.123 6.9 6.9 0 00.263-.14.875.875 0 00.229-.194c-.082-.059-.123-.117-.123-.176a1.1 1.1 0 01.053-.176l.07-.21a.224.224 0 000-.211c.316.046.592.005.826-.123.246-.141.475-.282.686-.422.222-.141.445-.24.667-.3.223-.058.481.013.774.212l.105.369c.059.152.112.31.159.475.058.164.111.322.158.474.047.152.076.264.088.334v1.406c.34.2.68.323 1.02.37.34.035.679-.047 1.019-.247.129.118.252.153.369.106.117-.059.229-.123.334-.194a.679.679 0 01.352-.105c.117-.012.234.082.351.281a1.06 1.06 0 01.51-.281 2.1 2.1 0 01.545-.07 8.32 8.32 0 00.545-.053c.187-.024.369-.1.545-.229zm-6.75.3c0-.176.029-.364.087-.563.06-.2.106-.393.141-.58.035-.2.03-.387-.017-.563-.036-.176-.147-.334-.334-.474a.859.859 0 00-.317.298c-.082.118-.164.24-.246.37a1.205 1.205 0 01-.299.298c-.105.082-.246.106-.422.07-.058.141-.058.259 0 .352.059.082.13.164.211.246.082.07.158.147.229.229.082.082.111.187.088.316.047.036.111.07.193.106.082.023.164.04.246.053a.953.953 0 00.264-.036.285.285 0 00.176-.123zm-.123 1.405a1.17 1.17 0 01-.616-.158 11.706 11.706 0 01-.51-.386 4.254 4.254 0 00-.527-.387 1.271 1.271 0 00-.65-.229 2.96 2.96 0 01-.37.405c-.14.117-.263.246-.368.386a1.393 1.393 0 00-.229.457c-.035.165-.006.352.088.563-.27.129-.451.316-.545.562a3.116 3.116 0 00-.193.774l-.07.844c-.024.28-.1.533-.23.756l.387-.264a.23.23 0 01.106.105c.035.047.041.1.018.159a.936.936 0 01.316-.211 1.4 1.4 0 01.352-.123 4.75 4.75 0 01.369-.088c.129-.024.252-.059.369-.106.293.164.504.2.633.106.129-.094.234-.235.316-.422.082-.188.17-.381.264-.58a.632.632 0 01.457-.387l-.123-.123a6.24 6.24 0 00.527-.756c.164-.27.24-.568.228-.897z" fill="#F7941E"/></svg>